<svg width="234" height="104" viewBox="0 0 234 104" fill="none" xmlns="http://www.w3.org/2000/svg">
<g clip-path="url(#clip0_771_588)">
<g clip-path="url(#clip1_771_588)">
<path d="M2.50014 85.0184L7.4514 100.471L12.419 85.0184H14.9355L8.48087 103.754H6.43827L0 85.0184H2.50014ZM21.292 89.8297V103.754H19.086V89.8297H21.292ZM18.9063 86.1422C18.9063 85.7559 19.0152 85.4282 19.2331 85.1589C19.451 84.9014 19.7723 84.7726 20.1972 84.7726C20.633 84.7726 20.9652 84.9014 21.194 85.1589C21.4119 85.4282 21.5208 85.7559 21.5208 86.1422C21.5208 86.5285 21.4119 86.8505 21.194 87.108C20.9652 87.3655 20.633 87.4943 20.1972 87.4943C19.7723 87.4943 19.451 87.3655 19.2331 87.108C19.0152 86.8505 18.9063 86.5285 18.9063 86.1422ZM33.0574 89.7594V91.9719C32.7197 91.9134 32.3548 91.8841 31.9626 91.8841C30.5137 91.8841 29.5278 92.5455 29.0049 93.8683V103.754H26.7989V89.8297H28.9559L28.9886 91.4451C29.7184 90.1926 30.7479 89.5663 32.077 89.5663C32.5018 89.5663 32.8286 89.6307 33.0574 89.7594ZM38.4335 86.4583H40.6559V89.8297H43.0743V91.6734H40.6559V100.295C40.6559 100.857 40.7648 101.278 40.9827 101.559C41.1897 101.84 41.5546 101.981 42.0775 101.981C42.339 101.981 42.693 101.928 43.1397 101.823V103.754C42.5514 103.918 41.9849 104 41.4402 104C40.4489 104 39.7027 103.678 39.2015 103.034C38.6895 102.39 38.4335 101.477 38.4335 100.295V91.6734H36.0805V89.8297H38.4335V86.4583ZM55.6567 103.754L55.6077 102.367C54.7471 103.456 53.4834 104 51.8166 104C50.4331 104 49.3818 103.573 48.6629 102.718C47.9439 101.852 47.5789 100.576 47.568 98.8903V89.8297H49.7904V98.82C49.7904 100.927 50.5856 101.981 52.1761 101.981C53.8647 101.981 54.9922 101.308 55.5587 99.9614V89.8297H57.7647V103.754H55.6567ZM73.4028 103.754H71.0824C70.9626 103.473 70.8591 102.982 70.7719 102.279C69.7479 103.426 68.5224 104 67.0953 104C65.8098 104 64.7585 103.614 63.9415 102.841C63.1244 102.068 62.7159 101.085 62.7159 99.8911C62.7159 98.4396 63.2279 97.3158 64.252 96.5198C65.2869 95.712 66.7303 95.3082 68.5823 95.3082H70.7392V94.2195C70.7392 93.3884 70.5105 92.727 70.0529 92.2353C69.5845 91.7436 68.8982 91.4978 67.994 91.4978C67.2096 91.4978 66.5506 91.7085 66.0168 92.1299C65.483 92.5631 65.2161 93.084 65.2161 93.6927H62.9774C62.9774 93.002 63.2116 92.3289 63.68 91.6734C64.1376 91.0296 64.7585 90.5203 65.5429 90.1457C66.3272 89.7594 67.1879 89.5663 68.1247 89.5663C69.6172 89.5663 70.7883 89.9701 71.638 90.7779C72.4877 91.5739 72.9235 92.6801 72.9453 94.0966V100.488C72.9453 101.764 73.0978 102.783 73.4028 103.543V103.754ZM67.4057 101.928C68.1029 101.928 68.762 101.735 69.383 101.349C70.0039 100.962 70.456 100.465 70.7392 99.856V96.9939H69.0071C66.2946 96.9939 64.9383 97.8484 64.9383 99.5575C64.9383 100.307 65.167 100.886 65.6246 101.296C66.093 101.717 66.6867 101.928 67.4057 101.928ZM80.7888 84V103.754H78.5828V84H80.7888ZM105.186 97.8016H107.49C107.272 99.7799 106.591 101.308 105.447 102.385C104.303 103.462 102.784 104 100.888 104C98.8291 104 97.1786 103.21 95.9367 101.629C94.6948 100.037 94.0739 97.9128 94.0739 95.2555V93.4644C94.0739 91.7202 94.3626 90.1867 94.94 88.8639C95.5173 87.5411 96.3344 86.5285 97.3911 85.8262C98.4587 85.1238 99.6897 84.7726 101.084 84.7726C102.936 84.7726 104.423 85.3228 105.545 86.4232C106.656 87.5353 107.304 89.0746 107.49 91.0413H105.186C104.979 89.5546 104.543 88.4718 103.878 87.7928C103.214 87.1255 102.282 86.7919 101.084 86.7919C99.6134 86.7919 98.4641 87.3772 97.6362 88.5478C96.7973 89.7068 96.3779 91.3632 96.3779 93.5171V95.3433C96.3779 97.3685 96.7756 98.9839 97.5708 100.19C98.3552 101.384 99.4609 101.981 100.888 101.981C102.163 101.981 103.138 101.67 103.813 101.05C104.499 100.43 104.957 99.3468 105.186 97.8016ZM111.657 96.8358V96.6602C111.657 95.3023 111.902 94.079 112.392 92.9903C112.893 91.9017 113.59 91.0588 114.484 90.4618C115.377 89.8648 116.39 89.5663 117.523 89.5663C119.288 89.5663 120.715 90.2277 121.804 91.5505C122.894 92.8616 123.438 94.6058 123.438 96.7831V96.9412C123.438 98.2991 123.199 99.5165 122.719 100.594C122.229 101.67 121.537 102.507 120.644 103.104C119.751 103.701 118.721 104 117.556 104C115.802 104 114.38 103.344 113.291 102.033C112.201 100.722 111.657 98.9898 111.657 96.8358ZM113.879 96.9412C113.879 98.4864 114.211 99.7272 114.876 100.664C115.54 101.6 116.434 102.068 117.556 102.068C118.678 102.068 119.571 101.594 120.235 100.646C120.9 99.698 121.232 98.3693 121.232 96.6602C121.232 95.1384 120.895 93.9034 120.219 92.9552C119.544 92.007 118.645 91.5329 117.523 91.5329C116.434 91.5329 115.551 92.0012 114.876 92.9377C114.211 93.8625 113.879 95.197 113.879 96.9412ZM132.785 94.8165V96.7656H126.952V94.8165H132.785ZM149.289 85.0184V87.0553H143.685V103.754H141.397V87.0553H135.808V85.0184H149.289ZM157.672 104C155.918 104 154.491 103.38 153.391 102.139C152.291 100.91 151.741 99.2531 151.741 97.1694V96.7305C151.741 95.3608 151.986 94.1317 152.476 93.043C152.966 91.9543 153.652 91.1056 154.535 90.4969C155.417 89.8765 156.37 89.5663 157.394 89.5663C159.083 89.5663 160.396 90.1633 161.333 91.3573C162.259 92.5514 162.722 94.2605 162.722 96.4846V97.468H153.947C153.979 98.8376 154.355 99.9497 155.074 100.804C155.782 101.647 156.692 102.068 157.803 102.068C158.576 102.068 159.235 101.893 159.78 101.542C160.325 101.202 160.799 100.752 161.202 100.19L162.558 101.313C161.469 103.104 159.84 104 157.672 104ZM157.394 91.5329C156.501 91.5329 155.755 91.8783 155.156 92.5689C154.546 93.2713 154.17 94.2546 154.028 95.5189H160.516V95.3433C160.45 94.1258 160.145 93.1893 159.6 92.5338C159.056 91.8665 158.32 91.5329 157.394 91.5329ZM177.559 103.754H175.239C175.119 103.473 175.015 102.982 174.928 102.279C173.904 103.426 172.679 104 171.251 104C169.966 104 168.915 103.614 168.098 102.841C167.281 102.068 166.872 101.085 166.872 99.8911C166.872 98.4396 167.384 97.3158 168.408 96.5198C169.443 95.712 170.886 95.3082 172.738 95.3082H174.895V94.2195C174.895 93.3884 174.667 92.727 174.209 92.2353C173.741 91.7436 173.054 91.4978 172.15 91.4978C171.366 91.4978 170.707 91.7085 170.173 92.1299C169.639 92.5631 169.372 93.084 169.372 93.6927H167.134C167.134 93.002 167.368 92.3289 167.836 91.6734C168.294 91.0296 168.915 90.5203 169.699 90.1457C170.483 89.7594 171.344 89.5663 172.281 89.5663C173.773 89.5663 174.944 89.9701 175.794 90.7779C176.644 91.5739 177.085 92.6801 177.118 94.0966V100.488C177.118 101.764 177.265 102.783 177.559 103.543V103.754ZM171.562 101.928C172.259 101.928 172.918 101.735 173.539 101.349C174.16 100.962 174.612 100.465 174.895 99.856V96.9939H173.163C170.451 96.9939 169.094 97.8484 169.094 99.5575C169.094 100.307 169.323 100.886 169.781 101.296C170.249 101.717 170.843 101.928 171.562 101.928ZM187.739 102.068C188.524 102.068 189.215 101.811 189.815 101.296C190.403 100.781 190.73 100.137 190.795 99.3644H192.887C192.843 100.16 192.587 100.915 192.119 101.629C191.65 102.355 191.024 102.935 190.239 103.368C189.444 103.789 188.611 104 187.739 104C185.974 104 184.569 103.368 183.523 102.104C182.488 100.839 181.971 99.1127 181.971 96.9236V96.5198C181.971 95.1618 182.2 93.9561 182.657 92.9025C183.126 91.849 183.79 91.0296 184.651 90.4442C185.522 89.8589 186.546 89.5663 187.723 89.5663C189.172 89.5663 190.381 90.0345 191.351 90.971C192.309 91.9075 192.821 93.125 192.887 94.6234H190.795C190.73 93.722 190.408 92.9786 189.831 92.3933C189.264 91.8197 188.562 91.5329 187.723 91.5329C186.601 91.5329 185.729 91.9661 185.108 92.8323C184.487 93.6986 184.177 94.957 184.177 96.6076V97.0641C184.177 98.6678 184.487 99.9028 185.108 100.769C185.718 101.635 186.595 102.068 187.739 102.068ZM199.554 84V91.5154C200.534 90.216 201.809 89.5663 203.377 89.5663C206.112 89.5663 207.49 91.2286 207.512 94.5531V103.754H205.306V94.5356C205.295 93.5288 205.082 92.7855 204.668 92.3055C204.243 91.8256 203.59 91.5856 202.707 91.5856C201.988 91.5856 201.357 91.7963 200.812 92.2177C200.267 92.6275 199.848 93.1659 199.554 93.8332V103.754H197.331V84H199.554ZM218.166 104C216.412 104 214.985 103.38 213.885 102.139C212.784 100.91 212.234 99.2531 212.234 97.1694V96.7305C212.234 95.3608 212.479 94.1317 212.969 93.043C213.46 91.9543 214.146 91.1056 215.028 90.4969C215.911 89.8765 216.864 89.5663 217.888 89.5663C219.577 89.5663 220.889 90.1633 221.826 91.3573C222.752 92.5514 223.215 94.2605 223.215 96.4846V97.468H214.44C214.473 98.8376 214.849 99.9497 215.568 100.804C216.276 101.647 217.18 102.068 218.28 102.068C219.065 102.068 219.729 101.893 220.274 101.542C220.818 101.202 221.292 100.752 221.695 100.19L223.052 101.313C221.962 103.104 220.334 104 218.166 104ZM217.888 91.5329C216.995 91.5329 216.248 91.8783 215.649 92.5689C215.039 93.2713 214.663 94.2546 214.522 95.5189H221.009V95.3433C220.944 94.1258 220.639 93.1893 220.094 92.5338C219.549 91.8665 218.814 91.5329 217.888 91.5329ZM234 89.7594V91.9719C233.662 91.9134 233.297 91.8841 232.905 91.8841C231.456 91.8841 230.47 92.5455 229.947 93.8683V103.754H227.741V89.8297H229.898L229.931 91.4451C230.661 90.1926 231.69 89.5663 233.02 89.5663C233.455 89.5663 233.782 89.6307 234 89.7594Z" fill="#545454"/>
</g>
<g clip-path="url(#clip2_771_588)">
<path d="M12.7113 38.1371V27.4555H41.4484V38.1371H12.7113ZM13.725 14.5673V51.8569H46.2272V62.8743H0V3.54987H45.117V14.5673H13.725ZM75.978 63.5619C71.6551 63.5619 67.7613 62.5865 64.2965 60.6356C60.8317 58.6848 58.091 55.9611 56.0744 52.4645C54.0578 48.9573 53.0494 44.8318 53.0494 40.0879C53.0494 35.2802 54.0578 31.128 56.0744 27.6314C58.091 24.1242 60.8317 21.4112 64.2965 19.4923C67.7613 17.5735 71.6551 16.614 75.978 16.614C79.8504 16.614 83.2347 17.4615 86.1309 19.1565C89.0272 20.8515 91.2744 23.4206 92.8727 26.8639C94.4603 30.3072 95.2541 34.7152 95.2541 40.0879C95.2541 45.3968 94.4871 49.7888 92.9532 53.264C91.4192 56.7393 89.2149 59.3244 86.3401 61.0194C83.476 62.7144 80.022 63.5619 75.978 63.5619ZM78.2789 52.7044C80.4457 52.7044 82.4087 52.198 84.1679 51.1853C85.9271 50.1726 87.3323 48.7174 88.3835 46.8199C89.4348 44.9224 89.9604 42.6784 89.9604 40.0879C89.9604 37.4335 89.4348 35.1736 88.3835 33.308C87.3323 31.4425 85.9271 29.998 84.1679 28.9746C82.4087 27.9619 80.4457 27.4555 78.2789 27.4555C76.0692 27.4555 74.0793 27.9619 72.3094 28.9746C70.5502 29.998 69.145 31.4425 68.0938 33.308C67.0426 35.1736 66.5169 37.4335 66.5169 40.0879C66.5169 42.6784 67.0426 44.9224 68.0938 46.8199C69.145 48.7174 70.5502 50.1726 72.3094 51.1853C74.0793 52.198 76.0692 52.7044 78.2789 52.7044ZM103.01 62.8743H90.3144V53.5519L90.5718 39.992L89.719 26.5281V0H103.01V62.8743ZM135.85 63.8977C131.076 63.8977 126.501 63.2634 122.125 61.9948C117.737 60.7156 114.208 59.0632 111.537 57.0378L116.236 46.692C118.789 48.5042 121.814 49.986 125.311 51.1373C128.808 52.2993 132.347 52.8803 135.93 52.8803C138.665 52.8803 140.87 52.6138 142.543 52.0808C144.217 51.5371 145.45 50.7855 146.244 49.8261C147.048 48.8667 147.451 47.7687 147.451 46.5321C147.451 44.9437 146.823 43.6858 145.568 42.7583C144.313 41.8202 142.667 41.058 140.628 40.4717C138.58 39.8747 136.316 39.3097 133.838 38.7767C131.371 38.2331 128.899 37.5668 126.421 36.7779C123.954 35.9891 121.696 34.971 119.647 33.7238C117.598 32.4872 115.935 30.8508 114.659 28.8147C113.382 26.7786 112.744 24.1775 112.744 21.0114C112.744 17.6214 113.667 14.5299 115.512 11.737C117.357 8.94397 120.14 6.71064 123.862 5.03698C127.585 3.37398 132.262 2.54247 137.893 2.54247C141.648 2.54247 145.343 2.97955 148.979 3.85369C152.616 4.72783 155.828 6.03904 158.617 7.78733L154.353 18.2131C151.564 16.6354 148.781 15.4627 146.003 14.6952C143.214 13.9383 140.484 13.5599 137.813 13.5599C135.142 13.5599 132.953 13.869 131.248 14.4873C129.542 15.1056 128.319 15.9105 127.579 16.9019C126.839 17.8933 126.469 19.0392 126.469 20.3398C126.469 21.8642 127.091 23.0901 128.336 24.0176C129.591 24.9557 131.243 25.7072 133.291 26.2722C135.34 26.8372 137.598 27.4022 140.065 27.9672C142.543 28.5322 145.016 29.1825 147.483 29.9181C149.961 30.6536 152.224 31.6397 154.273 32.8763C156.311 34.1235 157.974 35.7652 159.261 37.8013C160.537 39.8268 161.176 42.3959 161.176 45.5087C161.176 48.8454 160.237 51.8942 158.36 54.6552C156.483 57.4269 153.683 59.6602 149.961 61.3552C146.239 63.0502 141.535 63.8977 135.85 63.8977ZM175.496 80C173.115 80 170.755 79.6322 168.416 78.8967C166.089 78.1611 164.185 77.1431 162.704 75.8425L167.563 66.4401C168.593 67.3463 169.773 68.0552 171.103 68.5669C172.444 69.0679 173.769 69.3184 175.078 69.3184C176.955 69.3184 178.446 68.8813 179.551 68.0072C180.656 67.1331 181.664 65.6779 182.576 63.6418L184.973 58.0452L185.987 56.606L202.447 17.2856H215.239L194.515 65.6726C193.034 69.3504 191.345 72.234 189.446 74.3234C187.537 76.4128 185.434 77.8839 183.139 78.7368C180.833 79.5789 178.285 80 175.496 80ZM192.471 55.4227L183.348 64.6652L162.881 17.2856H176.606L192.471 55.4227ZM234 62.8743H220.693V0H234V62.8743Z" fill="#545454"/>
</g>
</g>
<defs>
<clipPath id="clip0_771_588">
<rect width="234" height="104" fill="white"/>
</clipPath>
<clipPath id="clip1_771_588">
<rect width="234" height="20" fill="white" transform="translate(0 84)"/>
</clipPath>
<clipPath id="clip2_771_588">
<rect width="234" height="80" fill="white"/>
</clipPath>
</defs>
</svg>
