<svg width="148" height="220" viewBox="0 0 148 220" fill="none" xmlns="http://www.w3.org/2000/svg">
<g clip-path="url(#clip0_768_249)">
<path d="M147.286 62.1368C146.538 59.5244 145.043 57.4718 142.986 55.7925C142.425 56.7255 141.678 57.4718 140.93 58.2182L138.126 60.8306C139.247 61.7636 139.995 62.8832 140.556 64.1893C141.491 66.8017 140.743 69.6006 138.686 71.4666L121.487 88.2603L125.6 111.958C126.161 114.757 125.039 117.369 122.796 119.049C120.552 120.728 117.748 120.915 115.318 119.609L89.145 105.987C84.4713 103.561 79.2367 102.255 74.0022 102.255C68.7676 102.255 63.72 103.561 58.8593 105.987L52.3162 109.346L50.8206 117.929L62.0375 111.958C69.5154 108.04 78.302 108.04 85.7799 111.958L112.701 126.139C114.57 127.072 116.626 127.446 118.496 127.446C121.487 127.446 124.291 126.513 126.722 124.647C131.021 121.474 133.265 116.25 132.33 110.838L128.965 90.8726L143.547 76.6913C147.66 72.9594 148.969 67.3615 147.286 62.1368Z" fill="#9A7EF6"/>
<path d="M136.63 52.6202C140.182 48.8883 141.304 43.6636 139.621 38.8121C137.939 33.5874 133.639 30.0421 128.217 29.1091L108.027 26.1235L99.0533 7.83705C96.6229 2.98554 91.7623 0 86.3408 0C83.7235 0 81.1062 0.746384 79.0498 2.05256C79.6107 2.98554 80.1715 3.91853 80.7323 4.85151L82.4149 8.21025C83.5365 7.46387 84.8452 6.90407 86.3408 6.90407C89.145 6.90407 91.5753 8.39685 92.697 10.8226L103.353 32.2812L127.096 35.6399C129.9 36.0131 131.956 37.8791 132.891 40.4915C133.826 43.1038 133.078 45.9028 131.021 47.7687L109.896 68.2944C102.231 75.7582 98.6794 86.3942 100.549 97.0302L101.857 104.307L109.709 108.413L107.466 95.9106C105.97 87.7004 108.775 79.3036 114.757 73.3325L136.63 52.6202Z" fill="#FF6862"/>
<path d="M106.718 48.3285C98.4924 47.2089 91.2014 41.9842 87.4625 34.5203L74.0022 7.46379C71.5718 2.98548 66.8981 0.186523 61.6636 0.186523C56.2421 0.186523 51.3814 3.17208 48.9511 8.02359L39.9775 26.31L19.9741 29.109C14.5526 29.8554 10.2527 33.5873 8.5702 38.812C7.82241 41.4244 7.63547 44.0367 8.19631 46.4625C9.13105 46.0893 10.2527 45.9027 11.3744 45.7161L15.1134 45.1563C14.7395 43.8501 14.7395 42.3574 15.1134 40.8646C16.0481 38.2522 18.1046 36.3863 20.9088 36.0131L44.6513 32.6543L55.3073 11.1957C56.616 8.76997 58.8594 7.2772 61.6636 7.2772C64.4678 7.2772 66.8981 8.76997 68.0198 11.1957L81.1062 37.6924C85.7799 47.2089 94.9404 53.9263 105.596 55.4191L112.887 56.5387L119.244 50.381L106.718 48.3285Z" fill="#FEAC4C"/>
<path d="M108.775 131.924L105.41 130.244C104.849 131.551 104.101 132.67 102.979 133.603C100.736 135.283 97.9316 135.469 95.5012 134.163L74.1891 122.967L52.877 134.163C50.4467 135.469 47.6424 135.283 45.3991 133.603C43.1557 131.924 42.034 129.311 42.5948 126.513L47.6424 97.4034C49.5119 86.954 45.9599 76.1314 38.295 68.6676L33.0605 63.4429L24.4608 64.749L33.6213 73.7057C39.6037 79.4902 42.4079 87.887 40.9123 96.2839L35.8647 125.393L35.6777 126.139C35.1169 131.177 37.1733 136.216 41.4731 139.201C45.773 142.373 51.5684 142.746 56.429 140.321L74.3761 130.804L92.3231 140.321C94.3796 141.44 96.623 142 98.8663 142C101.858 142 104.662 141.067 107.092 139.201C109.335 137.708 110.831 135.469 111.766 133.23C110.644 132.857 109.709 132.484 108.775 131.924Z" fill="#3481E5"/>
<path d="M66.3373 22.9514L60.7288 34.3338C56.9899 41.7977 49.8858 47.0224 41.4731 48.142L11.3744 52.4337C6.32681 53.3667 2.4009 56.912 0.718362 61.9501C-0.964174 67.1748 0.344483 72.5861 4.2704 76.5046L18.8524 90.686L15.4873 110.652C14.5526 116.063 16.7959 121.288 21.0958 124.46C23.3391 125.953 25.7695 126.886 28.1998 127.072C28.1998 125.953 28.3868 125.02 28.5737 123.9L29.1345 120.168C27.8259 120.168 26.3303 119.608 25.2086 118.862C22.9652 117.183 21.8436 114.57 22.4044 111.771L26.5173 88.0736L9.318 71.2799C7.26157 69.414 6.70073 66.615 7.44852 64.0027C8.38326 61.3903 10.4397 59.5243 13.2439 59.1511L42.4079 54.8594C53.0639 53.3667 62.0375 46.6492 66.8981 37.1328L70.2632 30.4153L66.3373 22.9514Z" fill="#50BBA9"/>
</g>
<g clip-path="url(#clip1_768_249)">
<path d="M1.70449 206.616L5.0812 215.878L8.46867 206.616H10.1839L5.7802 217.847H4.39295L0 206.616H1.70449ZM13.8402 209.501V217.847H12.3347V209.501H13.8402ZM12.211 207.288C12.211 207.057 12.2863 206.862 12.4368 206.702C12.5838 206.543 12.8043 206.463 13.0982 206.463C13.3921 206.463 13.6144 206.543 13.7649 206.702C13.9191 206.862 13.9961 207.057 13.9961 207.288C13.9961 207.518 13.9191 207.712 13.7649 207.868C13.6144 208.02 13.3921 208.097 13.0982 208.097C12.8043 208.097 12.5838 208.02 12.4368 207.868C12.2863 207.712 12.211 207.518 12.211 207.288ZM21.1851 209.455V210.779C20.9557 210.745 20.7084 210.728 20.4431 210.728C19.4537 210.728 18.7816 211.126 18.4267 211.924V217.847H16.9212V209.501H18.3891L18.4106 210.463C18.9053 209.72 19.6061 209.349 20.513 209.349C20.8069 209.349 21.031 209.384 21.1851 209.455ZM24.1801 207.481H25.691V209.501H27.3363V210.606H25.691V215.781C25.691 216.114 25.7627 216.363 25.9061 216.529C26.053 216.699 26.3039 216.784 26.6588 216.784C26.8309 216.784 27.0693 216.751 27.374 216.687V217.847C26.9796 217.949 26.5943 218 26.2179 218C25.544 218 25.0368 217.807 24.6962 217.42C24.3521 217.036 24.1801 216.49 24.1801 215.781V210.606H22.5777V209.501H24.1801V207.481ZM35.2404 217.847L35.2081 217.023C34.6203 217.674 33.7582 218 32.6218 218C31.6827 218 30.9675 217.742 30.4764 217.226C29.9853 216.707 29.7362 215.942 29.729 214.931V209.501H31.24V214.891C31.24 216.156 31.783 216.789 32.8692 216.789C34.0198 216.789 34.7852 216.383 35.1651 215.573V209.501H36.676V217.847H35.2404ZM46.6556 217.847H45.0748C44.9888 217.681 44.9189 217.388 44.8651 216.967C44.1625 217.656 43.3255 218 42.3541 218C41.483 218 40.7697 217.768 40.2141 217.303C39.6584 216.838 39.3806 216.248 39.3806 215.532C39.3806 214.663 39.7283 213.988 40.4238 213.506C41.1228 213.028 42.105 212.789 43.3703 212.789H44.8382V212.132C44.8382 211.634 44.6805 211.237 44.3651 210.941C44.0496 210.643 43.5854 210.494 42.9724 210.494C42.4347 210.494 41.9849 210.623 41.6228 210.88C41.2572 211.138 41.0744 211.45 41.0744 211.817H39.5581C39.5581 211.399 39.714 210.996 40.0259 210.606C40.3377 210.219 40.7625 209.912 41.3002 209.684C41.8343 209.461 42.4222 209.349 43.0638 209.349C44.0783 209.349 44.8741 209.588 45.4512 210.066C46.0283 210.548 46.3276 211.211 46.3491 212.056V215.893C46.3491 216.66 46.4513 217.271 46.6556 217.725V217.847ZM42.5745 216.758C43.0477 216.758 43.4958 216.643 43.9188 216.412C44.3418 216.182 44.6482 215.881 44.8382 215.511V213.796H43.6553C41.8092 213.796 40.8862 214.309 40.8862 215.333C40.8862 215.781 41.0439 216.131 41.3593 216.382C41.6748 216.633 42.0799 216.758 42.5745 216.758ZM51.0163 206V217.847H49.5108V206H51.0163ZM66.2868 214.285H67.8622C67.7153 215.472 67.2511 216.388 66.4696 217.033C65.6918 217.678 64.6558 218 63.3617 218C61.9602 218 60.8364 217.525 59.9904 216.575C59.148 215.622 58.7268 214.348 58.7268 212.753V211.674C58.7268 210.633 58.924 209.715 59.3183 208.921C59.709 208.131 60.2664 207.523 60.9905 207.099C61.7146 206.675 62.5516 206.463 63.5015 206.463C64.7597 206.463 65.7706 206.796 66.5341 207.461C67.2941 208.126 67.7368 209.047 67.8622 210.224H66.2868C66.1506 209.332 65.8566 208.684 65.405 208.28C64.9497 207.88 64.3153 207.679 63.5015 207.679C62.5014 207.679 61.7182 208.029 61.1518 208.728C60.5819 209.427 60.2969 210.422 60.2969 211.715V212.804C60.2969 214.022 60.5657 214.991 61.1034 215.71C61.6411 216.429 62.3939 216.789 63.3617 216.789C64.2328 216.789 64.8996 216.602 65.362 216.229C65.828 215.856 66.1362 215.208 66.2868 214.285ZM70.0291 213.695V213.598C70.0291 212.78 70.1994 212.044 70.5399 211.389C70.8769 210.738 71.3483 210.234 71.9541 209.878C72.5599 209.525 73.2517 209.349 74.0296 209.349C75.2304 209.349 76.2019 209.74 76.9439 210.524C77.6859 211.311 78.0569 212.358 78.0569 213.664V213.766C78.0569 214.58 77.892 215.31 77.5622 215.954C77.2324 216.599 76.7629 217.101 76.1535 217.461C75.5405 217.82 74.8379 218 74.0457 218C72.852 218 71.8842 217.606 71.1422 216.819C70.4001 216.032 70.0291 214.991 70.0291 213.695ZM71.5454 213.766C71.5454 214.692 71.7713 215.435 72.2229 215.995C72.6782 216.555 73.2858 216.835 74.0457 216.835C74.8128 216.835 75.4222 216.551 75.8739 215.985C76.3219 215.415 76.546 214.619 76.546 213.598C76.546 212.682 76.3166 211.939 75.8577 211.369C75.3989 210.802 74.7895 210.519 74.0296 210.519C73.284 210.519 72.6836 210.799 72.2283 211.359C71.7731 211.919 71.5454 212.721 71.5454 213.766ZM83.7511 212.494V213.659H79.7721V212.494H83.7511ZM94.3221 206.616V207.832H90.5099V217.847H88.9506V207.832H85.1437V206.616H94.3221ZM99.3657 218C98.172 218 97.1988 217.628 96.446 216.885C95.6968 216.142 95.3222 215.148 95.3222 213.903V213.644C95.3222 212.816 95.4889 212.076 95.8223 211.425C96.1592 210.774 96.627 210.265 97.2257 209.898C97.8279 209.532 98.4785 209.349 99.1775 209.349C100.325 209.349 101.215 209.705 101.85 210.417C102.488 211.133 102.807 212.156 102.807 213.486V214.081H96.8331C96.8546 214.906 97.1074 215.571 97.5913 216.076C98.0788 216.582 98.6971 216.835 99.4463 216.835C99.9804 216.835 100.432 216.733 100.801 216.529C101.171 216.322 101.493 216.049 101.769 215.71L102.689 216.387C101.95 217.462 100.843 218 99.3657 218ZM99.1775 210.519C98.5681 210.519 98.0573 210.728 97.6451 211.145C97.2328 211.566 96.9783 212.154 96.8815 212.911H101.296V212.804C101.253 212.078 101.047 211.515 100.678 211.115C100.308 210.718 99.8084 210.519 99.1775 210.519ZM112.243 217.847H110.663C110.573 217.681 110.501 217.388 110.448 216.967C109.749 217.656 108.912 218 107.937 218C107.069 218 106.356 217.768 105.796 217.303C105.241 216.838 104.963 216.248 104.963 215.532C104.963 214.663 105.313 213.988 106.012 213.506C106.711 213.028 107.693 212.789 108.958 212.789H110.426V212.132C110.426 211.634 110.268 211.237 109.953 210.941C109.637 210.643 109.173 210.494 108.56 210.494C108.019 210.494 107.567 210.623 107.205 210.88C106.84 211.138 106.657 211.45 106.657 211.817H105.14C105.14 211.399 105.298 210.996 105.614 210.606C105.926 210.219 106.349 209.912 106.883 209.684C107.417 209.461 108.005 209.349 108.646 209.349C109.664 209.349 110.46 209.588 111.034 210.066C111.611 210.548 111.91 211.211 111.932 212.056V215.893C111.932 216.66 112.036 217.271 112.243 217.725V217.847ZM108.157 216.758C108.63 216.758 109.078 216.643 109.501 216.412C109.928 216.182 110.236 215.881 110.426 215.511V213.796H109.243C107.397 213.796 106.474 214.309 106.474 215.333C106.474 215.781 106.63 216.131 106.942 216.382C107.257 216.633 107.662 216.758 108.157 216.758ZM118.502 216.835C119.04 216.835 119.509 216.68 119.911 216.372C120.312 216.063 120.535 215.678 120.578 215.216H122.003C121.977 215.695 121.804 216.149 121.481 216.58C121.162 217.014 120.735 217.359 120.201 217.613C119.664 217.871 119.097 218 118.502 218C117.301 218 116.346 217.622 115.636 216.865C114.927 216.105 114.572 215.067 114.572 213.751V213.511C114.572 212.701 114.729 211.978 115.045 211.344C115.36 210.712 115.812 210.222 116.4 209.873C116.991 209.523 117.688 209.349 118.491 209.349C119.481 209.349 120.303 209.628 120.959 210.188C121.612 210.748 121.96 211.476 122.003 212.372H120.578C120.535 211.832 120.32 211.388 119.932 211.038C119.542 210.692 119.061 210.519 118.491 210.519C117.724 210.519 117.131 210.78 116.712 211.303C116.289 211.825 116.077 212.58 116.077 213.567V213.837C116.077 214.797 116.287 215.537 116.706 216.056C117.126 216.575 117.724 216.835 118.502 216.835ZM125.874 206V210.509C126.544 209.735 127.414 209.349 128.482 209.349C130.346 209.349 131.287 210.343 131.305 212.331V217.847H129.794V212.326C129.79 211.722 129.645 211.276 129.358 210.987C129.075 210.699 128.631 210.555 128.025 210.555C127.537 210.555 127.109 210.679 126.74 210.926C126.37 211.174 126.082 211.498 125.874 211.898V217.847H124.368V206H125.874ZM137.886 218C136.692 218 135.721 217.628 134.972 216.885C134.219 216.142 133.843 215.148 133.843 213.903V213.644C133.843 212.816 134.011 212.076 134.348 211.425C134.681 210.774 135.147 210.265 135.746 209.898C136.348 209.532 136.999 209.349 137.698 209.349C138.845 209.349 139.736 209.705 140.37 210.417C141.008 211.133 141.327 212.156 141.327 213.486V214.081H135.353C135.375 214.906 135.629 215.571 136.117 216.076C136.601 216.582 137.217 216.835 137.967 216.835C138.501 216.835 138.952 216.733 139.322 216.529C139.691 216.322 140.013 216.049 140.289 215.71L141.214 216.387C140.472 217.462 139.363 218 137.886 218ZM137.698 210.519C137.092 210.519 136.581 210.728 136.165 211.145C135.753 211.566 135.499 212.154 135.402 212.911H139.816V212.804C139.773 212.078 139.567 211.515 139.198 211.115C138.829 210.718 138.329 210.519 137.698 210.519ZM148 209.455V210.779C147.771 210.745 147.523 210.728 147.258 210.728C146.269 210.728 145.598 211.126 145.247 211.924V217.847H143.736V209.501H145.204L145.231 210.463C145.726 209.72 146.426 209.349 147.333 209.349C147.627 209.349 147.849 209.384 148 209.455Z" fill="#545454"/>
</g>
<g clip-path="url(#clip2_768_249)">
<path d="M8.36985 179.466V172.578H23.3129V179.466H8.36985ZM9.00996 167.083V185.424H25.8465V192.552H0V159.955H25.2494V167.083H9.00996ZM45.9427 192.966C43.6727 192.966 41.6108 192.43 39.7568 191.359C37.9028 190.292 36.4235 188.787 35.319 186.845C34.2145 184.906 33.6623 182.587 33.6623 179.886C33.6623 177.217 34.2145 174.912 35.319 172.97C36.4235 171.031 37.9028 169.534 39.7568 168.477C41.6108 167.421 43.6727 166.893 45.9427 166.893C48.0908 166.893 49.9071 167.359 51.3917 168.292C52.8799 169.221 54.0078 170.65 54.7752 172.578C55.539 174.502 55.9209 176.938 55.9209 179.886C55.9209 182.895 55.5533 185.362 54.8182 187.286C54.0831 189.21 52.9803 190.639 51.5101 191.572C50.0362 192.501 48.1804 192.966 45.9427 192.966ZM47.7824 185.936C48.7649 185.936 49.6471 185.703 50.4289 185.239C51.2106 184.774 51.831 184.084 52.29 183.169C52.749 182.251 52.9786 181.156 52.9786 179.886C52.9786 178.611 52.749 177.533 52.29 176.651C51.831 175.765 51.2106 175.09 50.4289 174.625C49.6471 174.157 48.7649 173.923 47.7824 173.923C46.7711 173.923 45.8746 174.157 45.0928 174.625C44.3111 175.09 43.6907 175.765 43.2317 176.651C42.7691 177.533 42.5378 178.611 42.5378 179.886C42.5378 181.156 42.7691 182.251 43.2317 183.169C43.6907 184.084 44.3111 184.774 45.0928 185.239C45.8746 185.703 46.7711 185.936 47.7824 185.936ZM61.5797 192.552H53.2583V188.217L53.3013 179.886L52.8441 171.549V158H61.5797V192.552ZM83.521 193.2C80.8816 193.2 78.3427 192.866 75.9042 192.198C73.4693 191.534 71.4844 190.673 69.9495 189.617L72.9403 182.821C74.3819 183.75 76.0458 184.518 77.9321 185.124C79.8184 185.731 81.6957 186.034 83.564 186.034C84.8227 186.034 85.834 185.916 86.5978 185.68C87.3652 185.447 87.9246 185.137 88.2761 184.749C88.6311 184.36 88.8086 183.903 88.8086 183.376C88.8086 182.632 88.4715 182.042 87.7973 181.606C87.1232 181.174 86.2482 180.819 85.1723 180.539C84.1001 180.26 82.9131 179.98 81.6114 179.7C80.3061 179.421 79.0025 179.063 77.7008 178.628C76.3991 178.192 75.2103 177.626 74.1345 176.929C73.0622 176.232 72.189 175.315 71.5149 174.179C70.8407 173.046 70.5036 171.612 70.5036 169.877C70.5036 167.92 71.0325 166.15 72.0904 164.567C73.1483 162.984 74.7351 161.712 76.8509 160.75C78.9667 159.788 81.6024 159.307 84.7582 159.307C86.8739 159.307 88.952 159.547 90.9925 160.026C93.033 160.509 94.8493 161.215 96.4415 162.144L93.639 168.989C92.1042 168.15 90.5855 167.522 89.0829 167.105C87.5804 166.684 86.1244 166.473 84.7151 166.473C83.4564 166.473 82.4451 166.606 81.6813 166.871C80.9139 167.136 80.3616 167.486 80.0246 167.922C79.6875 168.354 79.5189 168.849 79.5189 169.408C79.5189 170.124 79.8488 170.69 80.5087 171.107C81.1649 171.529 82.0381 171.87 83.1283 172.131C84.2149 172.396 85.4108 172.668 86.7161 172.948C88.0179 173.228 89.3214 173.576 90.6267 173.994C91.9285 174.415 93.1154 174.974 94.1877 175.671C95.2599 176.368 96.1259 177.284 96.7858 178.421C97.4456 179.553 97.7755 180.973 97.7755 182.679C97.7755 184.571 97.2466 186.317 96.1887 187.918C95.1308 189.515 93.5512 190.795 91.4497 191.757C89.3519 192.719 86.709 193.2 83.521 193.2ZM110.422 202C109.106 202 107.781 201.791 106.447 201.374C105.113 200.953 104.031 200.401 103.203 199.718L106.237 193.527C106.76 193.991 107.366 194.356 108.055 194.621C108.743 194.886 109.427 195.019 110.104 195.019C111.055 195.019 111.804 194.801 112.353 194.365C112.905 193.93 113.382 193.247 113.784 192.318L114.929 189.383L115.623 188.5L124.085 167.312H132.406L121.648 193.576C120.787 195.747 119.797 197.446 118.679 198.673C117.56 199.9 116.319 200.76 114.956 201.254C113.59 201.751 112.079 202 110.422 202ZM119.9 187.705L113.827 193.619L102.837 167.312H111.804L119.9 187.705ZM148 192.552H139.259V158H148V192.552Z" fill="#545454"/>
</g>
<defs>
<clipPath id="clip0_768_249">
<rect width="148" height="142" fill="white"/>
</clipPath>
<clipPath id="clip1_768_249">
<rect width="148" height="12" fill="white" transform="translate(0 206)"/>
</clipPath>
<clipPath id="clip2_768_249">
<rect width="148" height="44" fill="white" transform="translate(0 158)"/>
</clipPath>
</defs>
</svg>
