<svg width="414" height="142" viewBox="0 0 414 142" fill="none" xmlns="http://www.w3.org/2000/svg">
<g clip-path="url(#clip0_769_355)">
<g clip-path="url(#clip1_769_355)">
<path d="M147.286 62.1368C146.538 59.5244 145.043 57.4718 142.986 55.7925C142.425 56.7255 141.678 57.4718 140.93 58.2182L138.126 60.8306C139.247 61.7636 139.995 62.8831 140.556 64.1893C141.491 66.8017 140.743 69.6006 138.686 71.4666L121.487 88.2603L125.6 111.958C126.161 114.757 125.039 117.369 122.796 119.049C120.552 120.728 117.748 120.915 115.318 119.608L89.145 105.987C84.4713 103.561 79.2367 102.255 74.0022 102.255C68.7676 102.255 63.72 103.561 58.8593 105.987L52.3162 109.346L50.8206 117.929L62.0375 111.958C69.5154 108.039 78.302 108.039 85.7799 111.958L112.701 126.139C114.57 127.072 116.626 127.446 118.496 127.446C121.487 127.446 124.291 126.513 126.722 124.647C131.021 121.474 133.265 116.25 132.33 110.838L128.965 90.8726L143.547 76.6913C147.66 72.9594 148.969 67.3615 147.286 62.1368Z" fill="#9A7EF6"/>
<path d="M136.63 52.6202C140.182 48.8883 141.304 43.6636 139.621 38.8121C137.939 33.5874 133.639 30.042 128.217 29.109L108.027 26.1235L99.0533 7.83705C96.6229 2.98554 91.7623 0 86.3408 0C83.7235 0 81.1062 0.746383 79.0498 2.05256C79.6107 2.98554 80.1715 3.91852 80.7323 4.85151L82.4149 8.21025C83.5365 7.46386 84.8452 6.90406 86.3408 6.90406C89.145 6.90406 91.5753 8.39685 92.697 10.8226L103.353 32.2812L127.096 35.6399C129.9 36.0131 131.956 37.8791 132.891 40.4914C133.826 43.1038 133.078 45.9027 131.021 47.7687L109.896 68.2943C102.231 75.7582 98.6794 86.3942 100.549 97.0302L101.857 104.307L109.709 108.413L107.466 95.9106C105.97 87.7003 108.775 79.3035 114.757 73.3324L136.63 52.6202Z" fill="#FF6862"/>
<path d="M106.718 48.3284C98.4924 47.2089 91.2015 41.9841 87.4625 34.5203L74.0022 7.46379C71.5719 2.98547 66.8982 0.186523 61.6636 0.186523C56.2421 0.186523 51.3814 3.17208 48.9511 8.02359L39.9776 26.31L19.9741 29.109C14.5526 29.8554 10.2528 33.5873 8.57023 38.812C7.82244 41.4244 7.6355 44.0367 8.19634 46.4625C9.13108 46.0893 10.2528 45.9027 11.3745 45.7161L15.1134 45.1563C14.7395 43.8501 14.7395 42.3573 15.1134 40.8646C16.0482 38.2522 18.1046 36.3863 20.9088 36.0131L44.6513 32.6543L55.3073 11.1957C56.616 8.76997 58.8594 7.2772 61.6636 7.2772C64.4678 7.2772 66.8982 8.76997 68.0198 11.1957L81.1062 37.6924C85.78 47.2088 94.9404 53.9263 105.596 55.4191L112.888 56.5387L119.244 50.381L106.718 48.3284Z" fill="#FEAC4C"/>
<path d="M108.775 131.924L105.41 130.244C104.849 131.551 104.101 132.67 102.979 133.603C100.736 135.283 97.9316 135.469 95.5012 134.163L74.1891 122.967L52.877 134.163C50.4467 135.469 47.6425 135.283 45.3991 133.603C43.1557 131.924 42.034 129.311 42.5948 126.512L47.6424 97.4034C49.5119 86.954 45.9599 76.1314 38.295 68.6676L33.0605 63.4429L24.4608 64.749L33.6213 73.7057C39.6037 79.4902 42.4079 87.887 40.9123 96.2839L35.8647 125.393L35.6777 126.139C35.1169 131.177 37.1733 136.216 41.4731 139.201C45.773 142.373 51.5684 142.746 56.429 140.321L74.3761 130.804L92.3231 140.321C94.3796 141.44 96.623 142 98.8663 142C101.858 142 104.662 141.067 107.092 139.201C109.335 137.708 110.831 135.469 111.766 133.23C110.644 132.857 109.709 132.484 108.775 131.924Z" fill="#3481E5"/>
<path d="M66.3373 22.9514L60.7288 34.3338C56.9899 41.7977 49.8858 47.0224 41.4731 48.1419L11.3744 52.4337C6.32681 53.3666 2.4009 56.912 0.718362 61.9501C-0.964174 67.1748 0.344483 72.5861 4.2704 76.5046L18.8524 90.6859L15.4873 110.652C14.5526 116.063 16.7959 121.288 21.0958 124.46C23.3391 125.953 25.7695 126.886 28.1998 127.072C28.1998 125.953 28.3868 125.02 28.5737 123.9L29.1345 120.168C27.8259 120.168 26.3303 119.608 25.2086 118.862C22.9652 117.183 21.8436 114.57 22.4044 111.771L26.5173 88.0736L9.318 71.2799C7.26157 69.4139 6.70073 66.615 7.44852 64.0026C8.38326 61.3903 10.4397 59.5243 13.2439 59.1511L42.4079 54.8594C53.0639 53.3666 62.0375 46.6492 66.8981 37.1327L70.2632 30.4153L66.3373 22.9514Z" fill="#50BBA9"/>
</g>
<g clip-path="url(#clip2_769_355)">
<path d="M182.5 105.018L187.451 120.471L192.419 105.018H194.935L188.481 123.754H186.438L180 105.018H182.5ZM201.292 109.83V123.754H199.086V109.83H201.292ZM198.906 106.142C198.906 105.756 199.015 105.428 199.233 105.159C199.451 104.901 199.772 104.773 200.197 104.773C200.633 104.773 200.965 104.901 201.194 105.159C201.412 105.428 201.521 105.756 201.521 106.142C201.521 106.529 201.412 106.85 201.194 107.108C200.965 107.366 200.633 107.494 200.197 107.494C199.772 107.494 199.451 107.366 199.233 107.108C199.015 106.85 198.906 106.529 198.906 106.142ZM213.057 109.759V111.972C212.72 111.913 212.355 111.884 211.963 111.884C210.514 111.884 209.528 112.546 209.005 113.868V123.754H206.799V109.83H208.956L208.989 111.445C209.718 110.193 210.748 109.566 212.077 109.566C212.502 109.566 212.829 109.631 213.057 109.759ZM218.434 106.458H220.656V109.83H223.074V111.673H220.656V120.295C220.656 120.857 220.765 121.278 220.983 121.559C221.19 121.84 221.555 121.981 222.078 121.981C222.339 121.981 222.693 121.928 223.14 121.823V123.754C222.551 123.918 221.985 124 221.44 124C220.449 124 219.703 123.678 219.202 123.034C218.69 122.39 218.434 121.477 218.434 120.295V111.673H216.08V109.83H218.434V106.458ZM235.657 123.754L235.608 122.367C234.747 123.456 233.483 124 231.817 124C230.433 124 229.382 123.573 228.663 122.718C227.944 121.852 227.579 120.576 227.568 118.89V109.83H229.79V118.82C229.79 120.927 230.586 121.981 232.176 121.981C233.865 121.981 234.992 121.308 235.559 119.961V109.83H237.765V123.754H235.657ZM253.403 123.754H251.082C250.963 123.473 250.859 122.982 250.772 122.279C249.748 123.426 248.522 124 247.095 124C245.81 124 244.759 123.614 243.941 122.841C243.124 122.068 242.716 121.085 242.716 119.891C242.716 118.44 243.228 117.316 244.252 116.52C245.287 115.712 246.73 115.308 248.582 115.308H250.739V114.219C250.739 113.388 250.51 112.727 250.053 112.235C249.585 111.744 248.898 111.498 247.994 111.498C247.21 111.498 246.551 111.709 246.017 112.13C245.483 112.563 245.216 113.084 245.216 113.693H242.977C242.977 113.002 243.212 112.329 243.68 111.673C244.138 111.03 244.759 110.52 245.543 110.146C246.327 109.759 247.188 109.566 248.125 109.566C249.617 109.566 250.788 109.97 251.638 110.778C252.488 111.574 252.923 112.68 252.945 114.097V120.488C252.945 121.764 253.098 122.783 253.403 123.543V123.754ZM247.406 121.928C248.103 121.928 248.762 121.735 249.383 121.349C250.004 120.962 250.456 120.465 250.739 119.856V116.994H249.007C246.295 116.994 244.938 117.848 244.938 119.558C244.938 120.307 245.167 120.886 245.625 121.296C246.093 121.717 246.687 121.928 247.406 121.928ZM260.789 104V123.754H258.583V104H260.789ZM285.186 117.802H287.49C287.272 119.78 286.591 121.308 285.447 122.385C284.303 123.462 282.784 124 280.888 124C278.829 124 277.179 123.21 275.937 121.629C274.695 120.037 274.074 117.913 274.074 115.255V113.464C274.074 111.72 274.363 110.187 274.94 108.864C275.517 107.541 276.334 106.529 277.391 105.826C278.459 105.124 279.69 104.773 281.084 104.773C282.936 104.773 284.423 105.323 285.545 106.423C286.656 107.535 287.304 109.075 287.49 111.041H285.186C284.979 109.555 284.543 108.472 283.878 107.793C283.214 107.126 282.282 106.792 281.084 106.792C279.613 106.792 278.464 107.377 277.636 108.548C276.797 109.707 276.378 111.363 276.378 113.517V115.343C276.378 117.368 276.776 118.984 277.571 120.19C278.355 121.384 279.461 121.981 280.888 121.981C282.163 121.981 283.138 121.67 283.813 121.05C284.499 120.43 284.957 119.347 285.186 117.802ZM291.657 116.836V116.66C291.657 115.302 291.902 114.079 292.392 112.99C292.893 111.902 293.59 111.059 294.484 110.462C295.377 109.865 296.39 109.566 297.523 109.566C299.288 109.566 300.715 110.228 301.804 111.55C302.894 112.862 303.438 114.606 303.438 116.783V116.941C303.438 118.299 303.199 119.517 302.719 120.594C302.229 121.67 301.537 122.507 300.644 123.104C299.751 123.701 298.721 124 297.556 124C295.802 124 294.38 123.344 293.291 122.033C292.201 120.722 291.657 118.99 291.657 116.836ZM293.879 116.941C293.879 118.486 294.211 119.727 294.876 120.664C295.54 121.6 296.434 122.068 297.556 122.068C298.678 122.068 299.571 121.594 300.235 120.646C300.9 119.698 301.232 118.369 301.232 116.66C301.232 115.138 300.895 113.903 300.219 112.955C299.544 112.007 298.645 111.533 297.523 111.533C296.434 111.533 295.551 112.001 294.876 112.938C294.211 113.862 293.879 115.197 293.879 116.941ZM312.785 114.817V116.766H306.952V114.817H312.785ZM329.289 105.018V107.055H323.685V123.754H321.397V107.055H315.808V105.018H329.289ZM337.672 124C335.918 124 334.491 123.38 333.391 122.139C332.291 120.91 331.741 119.253 331.741 117.169V116.73C331.741 115.361 331.986 114.132 332.476 113.043C332.966 111.954 333.652 111.106 334.535 110.497C335.417 109.876 336.37 109.566 337.394 109.566C339.083 109.566 340.396 110.163 341.333 111.357C342.259 112.551 342.722 114.26 342.722 116.485V117.468H333.947C333.979 118.838 334.355 119.95 335.074 120.804C335.782 121.647 336.692 122.068 337.803 122.068C338.576 122.068 339.235 121.893 339.78 121.542C340.325 121.202 340.799 120.752 341.202 120.19L342.558 121.313C341.469 123.104 339.84 124 337.672 124ZM337.394 111.533C336.501 111.533 335.755 111.878 335.156 112.569C334.546 113.271 334.17 114.255 334.028 115.519H340.516V115.343C340.45 114.126 340.145 113.189 339.6 112.534C339.056 111.867 338.32 111.533 337.394 111.533ZM357.559 123.754H355.239C355.119 123.473 355.015 122.982 354.928 122.279C353.904 123.426 352.679 124 351.251 124C349.966 124 348.915 123.614 348.098 122.841C347.281 122.068 346.872 121.085 346.872 119.891C346.872 118.44 347.384 117.316 348.408 116.52C349.443 115.712 350.886 115.308 352.738 115.308H354.895V114.219C354.895 113.388 354.667 112.727 354.209 112.235C353.741 111.744 353.054 111.498 352.15 111.498C351.366 111.498 350.707 111.709 350.173 112.13C349.639 112.563 349.372 113.084 349.372 113.693H347.134C347.134 113.002 347.368 112.329 347.836 111.673C348.294 111.03 348.915 110.52 349.699 110.146C350.483 109.759 351.344 109.566 352.281 109.566C353.773 109.566 354.944 109.97 355.794 110.778C356.644 111.574 357.085 112.68 357.118 114.097V120.488C357.118 121.764 357.265 122.783 357.559 123.543V123.754ZM351.562 121.928C352.259 121.928 352.918 121.735 353.539 121.349C354.16 120.962 354.612 120.465 354.895 119.856V116.994H353.163C350.451 116.994 349.094 117.848 349.094 119.558C349.094 120.307 349.323 120.886 349.781 121.296C350.249 121.717 350.843 121.928 351.562 121.928ZM367.739 122.068C368.524 122.068 369.215 121.811 369.815 121.296C370.403 120.781 370.73 120.137 370.795 119.364H372.887C372.843 120.16 372.587 120.915 372.119 121.629C371.65 122.355 371.024 122.935 370.239 123.368C369.444 123.789 368.611 124 367.739 124C365.974 124 364.569 123.368 363.523 122.104C362.488 120.839 361.971 119.113 361.971 116.924V116.52C361.971 115.162 362.2 113.956 362.657 112.903C363.126 111.849 363.79 111.03 364.651 110.444C365.522 109.859 366.546 109.566 367.723 109.566C369.172 109.566 370.381 110.035 371.351 110.971C372.309 111.908 372.821 113.125 372.887 114.623H370.795C370.73 113.722 370.408 112.979 369.831 112.393C369.264 111.82 368.562 111.533 367.723 111.533C366.601 111.533 365.729 111.966 365.108 112.832C364.487 113.699 364.177 114.957 364.177 116.608V117.064C364.177 118.668 364.487 119.903 365.108 120.769C365.718 121.635 366.595 122.068 367.739 122.068ZM379.554 104V111.515C380.534 110.216 381.809 109.566 383.377 109.566C386.112 109.566 387.49 111.229 387.512 114.553V123.754H385.306V114.536C385.295 113.529 385.082 112.785 384.668 112.306C384.243 111.826 383.59 111.586 382.707 111.586C381.988 111.586 381.357 111.796 380.812 112.218C380.267 112.627 379.848 113.166 379.554 113.833V123.754H377.331V104H379.554ZM398.166 124C396.412 124 394.985 123.38 393.885 122.139C392.784 120.91 392.234 119.253 392.234 117.169V116.73C392.234 115.361 392.479 114.132 392.969 113.043C393.46 111.954 394.146 111.106 395.028 110.497C395.911 109.876 396.864 109.566 397.888 109.566C399.577 109.566 400.889 110.163 401.826 111.357C402.752 112.551 403.215 114.26 403.215 116.485V117.468H394.44C394.473 118.838 394.849 119.95 395.568 120.804C396.276 121.647 397.18 122.068 398.28 122.068C399.065 122.068 399.729 121.893 400.274 121.542C400.818 121.202 401.292 120.752 401.695 120.19L403.052 121.313C401.962 123.104 400.334 124 398.166 124ZM397.888 111.533C396.995 111.533 396.248 111.878 395.649 112.569C395.039 113.271 394.663 114.255 394.522 115.519H401.009V115.343C400.944 114.126 400.639 113.189 400.094 112.534C399.549 111.867 398.814 111.533 397.888 111.533ZM414 109.759V111.972C413.662 111.913 413.297 111.884 412.905 111.884C411.456 111.884 410.47 112.546 409.947 113.868V123.754H407.741V109.83H409.898L409.931 111.445C410.661 110.193 411.69 109.566 413.02 109.566C413.455 109.566 413.782 109.631 414 109.759Z" fill="#545454"/>
</g>
<g clip-path="url(#clip3_769_355)">
<path d="M192.711 58.1371V47.4555H221.448V58.1371H192.711ZM193.725 34.5673V71.8569H226.227V82.8743H180V23.5499H225.117V34.5673H193.725ZM255.978 83.5619C251.655 83.5619 247.761 82.5865 244.296 80.6356C240.832 78.6848 238.091 75.9611 236.074 72.4645C234.058 68.9573 233.049 64.8318 233.049 60.0879C233.049 55.2802 234.058 51.128 236.074 47.6314C238.091 44.1242 240.832 41.4112 244.296 39.4923C247.761 37.5735 251.655 36.614 255.978 36.614C259.85 36.614 263.235 37.4615 266.131 39.1565C269.027 40.8515 271.274 43.4206 272.873 46.8639C274.46 50.3072 275.254 54.7152 275.254 60.0879C275.254 65.3968 274.487 69.7888 272.953 73.264C271.419 76.7393 269.215 79.3244 266.34 81.0194C263.476 82.7144 260.022 83.5619 255.978 83.5619ZM258.279 72.7044C260.446 72.7044 262.409 72.198 264.168 71.1853C265.927 70.1726 267.332 68.7174 268.384 66.8199C269.435 64.9224 269.96 62.6784 269.96 60.0879C269.96 57.4335 269.435 55.1736 268.384 53.308C267.332 51.4425 265.927 49.998 264.168 48.9746C262.409 47.9619 260.446 47.4555 258.279 47.4555C256.069 47.4555 254.079 47.9619 252.309 48.9746C250.55 49.998 249.145 51.4425 248.094 53.308C247.043 55.1736 246.517 57.4335 246.517 60.0879C246.517 62.6784 247.043 64.9224 248.094 66.8199C249.145 68.7174 250.55 70.1726 252.309 71.1853C254.079 72.198 256.069 72.7044 258.279 72.7044ZM283.01 82.8743H270.314V73.5519L270.572 59.992L269.719 46.5281V20H283.01V82.8743ZM315.85 83.8977C311.076 83.8977 306.501 83.2634 302.125 81.9948C297.737 80.7156 294.208 79.0632 291.537 77.0378L296.236 66.692C298.789 68.5042 301.814 69.986 305.311 71.1373C308.808 72.2993 312.347 72.8803 315.93 72.8803C318.665 72.8803 320.87 72.6138 322.543 72.0808C324.217 71.5371 325.45 70.7855 326.244 69.8261C327.048 68.8667 327.451 67.7687 327.451 66.5321C327.451 64.9437 326.823 63.6858 325.568 62.7583C324.313 61.8202 322.667 61.058 320.628 60.4717C318.58 59.8747 316.316 59.3097 313.838 58.7767C311.371 58.2331 308.899 57.5668 306.421 56.7779C303.954 55.9891 301.696 54.971 299.647 53.7238C297.598 52.4872 295.935 50.8508 294.659 48.8147C293.382 46.7786 292.744 44.1775 292.744 41.0114C292.744 37.6214 293.667 34.5299 295.512 31.737C297.357 28.944 300.14 26.7106 303.862 25.037C307.585 23.374 312.262 22.5425 317.893 22.5425C321.648 22.5425 325.343 22.9795 328.979 23.8537C332.616 24.7278 335.828 26.039 338.617 27.7873L334.353 38.2131C331.564 36.6354 328.781 35.4627 326.003 34.6952C323.214 33.9383 320.484 33.5599 317.813 33.5599C315.142 33.5599 312.953 33.869 311.248 34.4873C309.542 35.1056 308.319 35.9105 307.579 36.9019C306.839 37.8933 306.469 39.0392 306.469 40.3398C306.469 41.8642 307.091 43.0901 308.336 44.0176C309.591 44.9557 311.243 45.7072 313.291 46.2722C315.34 46.8372 317.598 47.4022 320.065 47.9672C322.543 48.5322 325.016 49.1825 327.483 49.9181C329.961 50.6536 332.224 51.6397 334.273 52.8763C336.311 54.1235 337.974 55.7652 339.261 57.8013C340.537 59.8268 341.176 62.3959 341.176 65.5087C341.176 68.8454 340.237 71.8942 338.36 74.6552C336.483 77.4269 333.683 79.6602 329.961 81.3552C326.239 83.0502 321.535 83.8977 315.85 83.8977ZM355.496 100C353.115 100 350.755 99.6322 348.416 98.8967C346.089 98.1611 344.185 97.1431 342.704 95.8425L347.563 86.4401C348.593 87.3463 349.773 88.0552 351.103 88.5669C352.444 89.0679 353.769 89.3184 355.078 89.3184C356.955 89.3184 358.446 88.8813 359.551 88.0072C360.656 87.1331 361.664 85.6779 362.576 83.6418L364.973 78.0452L365.987 76.606L382.447 37.2856H395.239L374.515 85.6726C373.034 89.3504 371.345 92.234 369.446 94.3234C367.537 96.4128 365.434 97.8839 363.139 98.7368C360.833 99.5789 358.285 100 355.496 100ZM372.471 75.4227L363.348 84.6652L342.881 37.2856H356.606L372.471 75.4227ZM414 82.8743H400.693V20H414V82.8743Z" fill="#545454"/>
</g>
</g>
<defs>
<clipPath id="clip0_769_355">
<rect width="414" height="142" fill="white"/>
</clipPath>
<clipPath id="clip1_769_355">
<rect width="148" height="142" fill="white"/>
</clipPath>
<clipPath id="clip2_769_355">
<rect width="234" height="20" fill="white" transform="translate(180 104)"/>
</clipPath>
<clipPath id="clip3_769_355">
<rect width="234" height="80" fill="white" transform="translate(180 20)"/>
</clipPath>
</defs>
</svg>
