<svg width="234" height="80" viewBox="0 0 234 80" fill="none" xmlns="http://www.w3.org/2000/svg">
<g clip-path="url(#clip0_771_595)">
<g clip-path="url(#clip1_771_595)">
<path d="M12.7113 38.1371V27.4555H41.4484V38.1371H12.7113ZM13.725 14.5673V51.8569H46.2272V62.8743H0V3.54987H45.117V14.5673H13.725ZM75.978 63.5619C71.6551 63.5619 67.7613 62.5865 64.2965 60.6356C60.8317 58.6848 58.091 55.9611 56.0744 52.4645C54.0578 48.9573 53.0494 44.8318 53.0494 40.0879C53.0494 35.2802 54.0578 31.128 56.0744 27.6314C58.091 24.1242 60.8317 21.4112 64.2965 19.4923C67.7613 17.5735 71.6551 16.614 75.978 16.614C79.8504 16.614 83.2347 17.4615 86.1309 19.1565C89.0272 20.8515 91.2744 23.4206 92.8727 26.8639C94.4603 30.3072 95.2541 34.7152 95.2541 40.0879C95.2541 45.3968 94.4871 49.7888 92.9532 53.264C91.4192 56.7393 89.2149 59.3244 86.3401 61.0194C83.476 62.7144 80.022 63.5619 75.978 63.5619ZM78.2789 52.7044C80.4457 52.7044 82.4087 52.198 84.1679 51.1853C85.9271 50.1726 87.3323 48.7174 88.3835 46.8199C89.4348 44.9224 89.9604 42.6784 89.9604 40.0879C89.9604 37.4335 89.4348 35.1736 88.3835 33.308C87.3323 31.4425 85.9271 29.998 84.1679 28.9746C82.4087 27.9619 80.4457 27.4555 78.2789 27.4555C76.0692 27.4555 74.0793 27.9619 72.3094 28.9746C70.5502 29.998 69.145 31.4425 68.0938 33.308C67.0426 35.1736 66.5169 37.4335 66.5169 40.0879C66.5169 42.6784 67.0426 44.9224 68.0938 46.8199C69.145 48.7174 70.5502 50.1726 72.3094 51.1853C74.0793 52.198 76.0692 52.7044 78.2789 52.7044ZM103.01 62.8743H90.3144V53.5519L90.5718 39.992L89.719 26.5281V0H103.01V62.8743ZM135.85 63.8977C131.076 63.8977 126.501 63.2634 122.125 61.9948C117.737 60.7156 114.208 59.0632 111.537 57.0378L116.236 46.692C118.789 48.5042 121.814 49.986 125.311 51.1373C128.808 52.2993 132.347 52.8803 135.93 52.8803C138.665 52.8803 140.87 52.6138 142.543 52.0808C144.217 51.5371 145.45 50.7855 146.244 49.8261C147.048 48.8667 147.451 47.7687 147.451 46.5321C147.451 44.9437 146.823 43.6858 145.568 42.7583C144.313 41.8202 142.667 41.058 140.628 40.4717C138.58 39.8747 136.316 39.3097 133.838 38.7767C131.371 38.2331 128.899 37.5668 126.421 36.7779C123.954 35.9891 121.696 34.971 119.647 33.7238C117.598 32.4872 115.935 30.8508 114.659 28.8147C113.382 26.7786 112.744 24.1775 112.744 21.0114C112.744 17.6214 113.667 14.5299 115.512 11.737C117.357 8.94397 120.14 6.71064 123.862 5.03698C127.585 3.37398 132.262 2.54247 137.893 2.54247C141.648 2.54247 145.343 2.97955 148.979 3.85369C152.616 4.72783 155.828 6.03904 158.617 7.78733L154.353 18.2131C151.564 16.6354 148.781 15.4627 146.003 14.6952C143.214 13.9383 140.484 13.5599 137.813 13.5599C135.142 13.5599 132.953 13.869 131.248 14.4873C129.542 15.1056 128.319 15.9105 127.579 16.9019C126.839 17.8933 126.469 19.0392 126.469 20.3398C126.469 21.8642 127.091 23.0901 128.336 24.0176C129.591 24.9557 131.243 25.7072 133.291 26.2722C135.34 26.8372 137.598 27.4022 140.065 27.9672C142.543 28.5322 145.016 29.1825 147.483 29.9181C149.961 30.6536 152.224 31.6397 154.273 32.8763C156.311 34.1235 157.974 35.7652 159.261 37.8013C160.537 39.8268 161.176 42.3959 161.176 45.5087C161.176 48.8454 160.237 51.8942 158.36 54.6552C156.483 57.4269 153.683 59.6602 149.961 61.3552C146.239 63.0502 141.535 63.8977 135.85 63.8977ZM175.496 80C173.115 80 170.755 79.6322 168.416 78.8967C166.089 78.1611 164.185 77.1431 162.704 75.8425L167.563 66.4401C168.593 67.3463 169.773 68.0552 171.103 68.5669C172.444 69.0679 173.769 69.3184 175.078 69.3184C176.955 69.3184 178.446 68.8813 179.551 68.0072C180.656 67.1331 181.664 65.6779 182.576 63.6418L184.973 58.0452L185.987 56.606L202.447 17.2856H215.239L194.515 65.6726C193.034 69.3504 191.345 72.234 189.446 74.3234C187.537 76.4128 185.434 77.8839 183.139 78.7368C180.833 79.5789 178.285 80 175.496 80ZM192.471 55.4227L183.348 64.6652L162.881 17.2856H176.606L192.471 55.4227ZM234 62.8743H220.693V0H234V62.8743Z" fill="#545454"/>
</g>
</g>
<defs>
<clipPath id="clip0_771_595">
<rect width="234" height="80" fill="white"/>
</clipPath>
<clipPath id="clip1_771_595">
<rect width="234" height="80" fill="white"/>
</clipPath>
</defs>
</svg>
