<svg width="148" height="220" viewBox="0 0 148 220" fill="none" xmlns="http://www.w3.org/2000/svg">
<g clip-path="url(#clip0_769_376)">
<path d="M147.286 62.1368C146.538 59.5244 145.043 57.4718 142.986 55.7925C142.425 56.7255 141.678 57.4718 140.93 58.2182L138.126 60.8306C139.247 61.7636 139.995 62.8832 140.556 64.1893C141.491 66.8017 140.743 69.6006 138.686 71.4666L121.487 88.2603L125.6 111.958C126.161 114.757 125.039 117.369 122.796 119.049C120.552 120.728 117.748 120.915 115.318 119.609L89.145 105.987C84.4713 103.561 79.2367 102.255 74.0022 102.255C68.7676 102.255 63.72 103.561 58.8594 105.987L52.3162 109.346L50.8206 117.929L62.0375 111.958C69.5154 108.04 78.302 108.04 85.7799 111.958L112.701 126.139C114.57 127.072 116.626 127.446 118.496 127.446C121.487 127.446 124.291 126.513 126.722 124.647C131.021 121.474 133.265 116.25 132.33 110.838L128.965 90.8726L143.547 76.6913C147.66 72.9594 148.969 67.3615 147.286 62.1368Z" fill="#9A7EF6"/>
<path d="M136.63 52.6202C140.182 48.8883 141.304 43.6636 139.621 38.8121C137.939 33.5874 133.639 30.0421 128.217 29.1091L108.027 26.1235L99.0532 7.83705C96.6229 2.98554 91.7623 0 86.3408 0C83.7235 0 81.1062 0.746384 79.0498 2.05256C79.6106 2.98554 80.1715 3.91853 80.7323 4.85151L82.4148 8.21025C83.5365 7.46387 84.8452 6.90407 86.3408 6.90407C89.145 6.90407 91.5753 8.39685 92.697 10.8226L103.353 32.2812L127.096 35.6399C129.9 36.0131 131.956 37.8791 132.891 40.4915C133.826 43.1038 133.078 45.9028 131.021 47.7687L109.896 68.2944C102.231 75.7582 98.6794 86.3942 100.549 97.0302L101.857 104.307L109.709 108.413L107.466 95.9106C105.97 87.7004 108.775 79.3036 114.757 73.3325L136.63 52.6202Z" fill="#FF6862"/>
<path d="M106.718 48.3285C98.4924 47.2089 91.2014 41.9842 87.4625 34.5203L74.0022 7.46379C71.5718 2.98548 66.8981 0.186523 61.6636 0.186523C56.2421 0.186523 51.3814 3.17208 48.9511 8.02359L39.9775 26.31L19.9741 29.109C14.5526 29.8554 10.2527 33.5873 8.57019 38.812C7.8224 41.4244 7.63546 44.0367 8.1963 46.4625C9.13105 46.0893 10.2527 45.9027 11.3744 45.7161L15.1134 45.1563C14.7395 43.8501 14.7395 42.3574 15.1134 40.8646C16.0481 38.2522 18.1046 36.3863 20.9088 36.0131L44.6513 32.6543L55.3073 11.1957C56.6159 8.76997 58.8593 7.2772 61.6636 7.2772C64.4678 7.2772 66.8981 8.76997 68.0198 11.1957L81.1062 37.6924C85.7799 47.2089 94.9404 53.9263 105.596 55.4191L112.887 56.5387L119.244 50.381L106.718 48.3285Z" fill="#FEAC4C"/>
<path d="M108.775 131.924L105.41 130.244C104.849 131.551 104.101 132.67 102.979 133.603C100.736 135.283 97.9316 135.469 95.5012 134.163L74.1891 122.967L52.877 134.163C50.4467 135.469 47.6425 135.283 45.3991 133.603C43.1557 131.924 42.034 129.311 42.5948 126.513L47.6425 97.4034C49.5119 86.954 45.9599 76.1314 38.295 68.6676L33.0605 63.4429L24.4608 64.749L33.6213 73.7057C39.6037 79.4902 42.4079 87.887 40.9123 96.2839L35.8647 125.393L35.6777 126.139C35.1169 131.177 37.1733 136.216 41.4731 139.201C45.773 142.373 51.5684 142.746 56.429 140.321L74.3761 130.804L92.3231 140.321C94.3796 141.44 96.623 142 98.8664 142C101.858 142 104.662 141.067 107.092 139.201C109.335 137.708 110.831 135.469 111.766 133.23C110.644 132.857 109.709 132.484 108.775 131.924Z" fill="#3481E5"/>
<path d="M66.3373 22.9514L60.7288 34.3338C56.9899 41.7977 49.8858 47.0224 41.4731 48.142L11.3744 52.4337C6.32681 53.3667 2.4009 56.912 0.718362 61.9501C-0.964174 67.1748 0.344483 72.5861 4.2704 76.5046L18.8524 90.686L15.4873 110.652C14.5526 116.063 16.7959 121.288 21.0958 124.46C23.3391 125.953 25.7695 126.886 28.1998 127.072C28.1998 125.953 28.3868 125.02 28.5737 123.9L29.1345 120.168C27.8259 120.168 26.3303 119.608 25.2086 118.862C22.9652 117.183 21.8436 114.57 22.4044 111.771L26.5173 88.0736L9.318 71.2799C7.26157 69.414 6.70073 66.615 7.44852 64.0027C8.38326 61.3903 10.4397 59.5243 13.2439 59.1511L42.4079 54.8594C53.0639 53.3667 62.0375 46.6492 66.8981 37.1328L70.2632 30.4153L66.3373 22.9514Z" fill="#50BBA9"/>
</g>
<g clip-path="url(#clip1_769_376)">
<path d="M8.36985 179.466V172.578H23.3129V179.466H8.36985ZM9.00996 167.083V185.424H25.8465V192.552H0V159.955H25.2494V167.083H9.00996ZM45.9427 192.966C43.6727 192.966 41.6108 192.43 39.7568 191.359C37.9028 190.292 36.4235 188.787 35.319 186.845C34.2145 184.906 33.6623 182.587 33.6623 179.886C33.6623 177.217 34.2145 174.912 35.319 172.97C36.4235 171.031 37.9028 169.534 39.7568 168.477C41.6108 167.421 43.6727 166.893 45.9427 166.893C48.0908 166.893 49.9071 167.359 51.3917 168.292C52.8799 169.221 54.0078 170.65 54.7752 172.578C55.539 174.502 55.9209 176.938 55.9209 179.886C55.9209 182.895 55.5533 185.362 54.8182 187.286C54.0831 189.21 52.9803 190.639 51.5101 191.572C50.0362 192.501 48.1804 192.966 45.9427 192.966ZM47.7824 185.936C48.7649 185.936 49.6471 185.703 50.4289 185.239C51.2106 184.774 51.831 184.084 52.29 183.169C52.749 182.251 52.9786 181.156 52.9786 179.886C52.9786 178.611 52.749 177.533 52.29 176.651C51.831 175.765 51.2106 175.09 50.4289 174.625C49.6471 174.157 48.7649 173.923 47.7824 173.923C46.7711 173.923 45.8746 174.157 45.0928 174.625C44.3111 175.09 43.6907 175.765 43.2317 176.651C42.7691 177.533 42.5378 178.611 42.5378 179.886C42.5378 181.156 42.7691 182.251 43.2317 183.169C43.6907 184.084 44.3111 184.774 45.0928 185.239C45.8746 185.703 46.7711 185.936 47.7824 185.936ZM61.5797 192.552H53.2583V188.217L53.3013 179.886L52.8441 171.549V158H61.5797V192.552ZM83.521 193.2C80.8816 193.2 78.3427 192.866 75.9042 192.198C73.4693 191.534 71.4844 190.673 69.9495 189.617L72.9403 182.821C74.3819 183.75 76.0458 184.518 77.9321 185.124C79.8184 185.731 81.6957 186.034 83.564 186.034C84.8227 186.034 85.834 185.916 86.5978 185.68C87.3652 185.447 87.9246 185.137 88.2761 184.749C88.6311 184.36 88.8086 183.903 88.8086 183.376C88.8086 182.632 88.4715 182.042 87.7973 181.606C87.1232 181.174 86.2482 180.819 85.1723 180.539C84.1001 180.26 82.9131 179.98 81.6114 179.7C80.3061 179.421 79.0025 179.063 77.7008 178.628C76.3991 178.192 75.2103 177.626 74.1345 176.929C73.0622 176.232 72.189 175.315 71.5149 174.179C70.8407 173.046 70.5036 171.612 70.5036 169.877C70.5036 167.92 71.0325 166.15 72.0904 164.567C73.1483 162.984 74.7351 161.712 76.8509 160.75C78.9667 159.788 81.6024 159.307 84.7582 159.307C86.8739 159.307 88.952 159.547 90.9925 160.026C93.033 160.509 94.8493 161.215 96.4415 162.144L93.639 168.989C92.1042 168.15 90.5855 167.522 89.0829 167.105C87.5804 166.684 86.1244 166.473 84.7151 166.473C83.4564 166.473 82.4451 166.606 81.6813 166.871C80.9139 167.136 80.3616 167.486 80.0246 167.922C79.6875 168.354 79.5189 168.849 79.5189 169.408C79.5189 170.124 79.8488 170.69 80.5087 171.107C81.1649 171.529 82.0381 171.87 83.1283 172.131C84.2149 172.396 85.4108 172.668 86.7161 172.948C88.0179 173.228 89.3214 173.576 90.6267 173.994C91.9285 174.415 93.1154 174.974 94.1877 175.671C95.2599 176.368 96.1259 177.284 96.7858 178.421C97.4456 179.553 97.7755 180.973 97.7755 182.679C97.7755 184.571 97.2466 186.317 96.1887 187.918C95.1308 189.515 93.5512 190.795 91.4497 191.757C89.3519 192.719 86.709 193.2 83.521 193.2ZM110.422 202C109.106 202 107.781 201.791 106.447 201.374C105.113 200.953 104.031 200.401 103.203 199.718L106.237 193.527C106.76 193.991 107.366 194.356 108.055 194.621C108.743 194.886 109.427 195.019 110.104 195.019C111.055 195.019 111.804 194.801 112.353 194.365C112.905 193.93 113.382 193.247 113.784 192.318L114.929 189.383L115.623 188.5L124.085 167.312H132.406L121.648 193.576C120.787 195.747 119.797 197.446 118.679 198.673C117.56 199.9 116.319 200.76 114.956 201.254C113.59 201.751 112.079 202 110.422 202ZM119.9 187.705L113.827 193.619L102.837 167.312H111.804L119.9 187.705ZM148 192.552H139.259V158H148V192.552Z" fill="#545454"/>
</g>
<defs>
<clipPath id="clip0_769_376">
<rect width="148" height="142" fill="white"/>
</clipPath>
<clipPath id="clip1_769_376">
<rect width="148" height="44" fill="white" transform="translate(0 158)"/>
</clipPath>
</defs>
</svg>
