<svg width="148" height="148" viewBox="0 0 148 148" fill="none" xmlns="http://www.w3.org/2000/svg">
<g clip-path="url(#clip0_769_452)">
<path d="M147.286 65.1368C146.538 62.5244 145.043 60.4718 142.986 58.7925C142.425 59.7255 141.678 60.4718 140.93 61.2182L138.126 63.8306C139.247 64.7636 139.995 65.8832 140.556 67.1893C141.491 69.8017 140.743 72.6006 138.686 74.4666L121.487 91.2603L125.6 114.958C126.161 117.757 125.039 120.369 122.796 122.049C120.552 123.728 117.748 123.915 115.318 122.609L89.145 108.987C84.4713 106.561 79.2367 105.255 74.0022 105.255C68.7676 105.255 63.72 106.561 58.8594 108.987L52.3162 112.346L50.8206 120.929L62.0375 114.958C69.5154 111.04 78.302 111.04 85.7799 114.958L112.701 129.139C114.57 130.072 116.626 130.446 118.496 130.446C121.487 130.446 124.291 129.513 126.722 127.647C131.021 124.474 133.265 119.25 132.33 113.838L128.965 93.8726L143.547 79.6913C147.66 75.9594 148.969 70.3615 147.286 65.1368Z" fill="#9A7EF6"/>
<path d="M136.63 55.6202C140.182 51.8883 141.304 46.6636 139.621 41.8121C137.939 36.5874 133.639 33.0421 128.217 32.1091L108.027 29.1235L99.0532 10.8371C96.6229 5.98554 91.7623 3 86.3408 3C83.7235 3 81.1062 3.74638 79.0498 5.05256C79.6106 5.98554 80.1715 6.91853 80.7323 7.85151L82.4148 11.2103C83.5365 10.4639 84.8452 9.90407 86.3408 9.90407C89.145 9.90407 91.5753 11.3969 92.697 13.8226L103.353 35.2812L127.096 38.6399C129.9 39.0131 131.956 40.8791 132.891 43.4915C133.826 46.1038 133.078 48.9028 131.021 50.7687L109.896 71.2944C102.231 78.7582 98.6794 89.3942 100.549 100.03L101.857 107.307L109.709 111.413L107.466 98.9106C105.97 90.7004 108.775 82.3036 114.757 76.3325L136.63 55.6202Z" fill="#FF6862"/>
<path d="M106.718 51.3285C98.4924 50.2089 91.2014 44.9842 87.4625 37.5203L74.0021 10.4638C71.5718 5.98548 66.8981 3.18652 61.6636 3.18652C56.2421 3.18652 51.3814 6.17208 48.9511 11.0236L39.9775 29.31L19.9741 32.109C14.5525 32.8554 10.2527 36.5873 8.57019 41.812C7.82239 44.4244 7.63545 47.0367 8.1963 49.4625C9.13104 49.0893 10.2527 48.9027 11.3744 48.7161L15.1134 48.1563C14.7395 46.8501 14.7395 45.3574 15.1134 43.8646C16.0481 41.2522 18.1046 39.3863 20.9088 39.0131L44.6512 35.6543L55.3073 14.1957C56.6159 11.77 58.8593 10.2772 61.6636 10.2772C64.4678 10.2772 66.8981 11.77 68.0198 14.1957L81.1062 40.6924C85.7799 50.2089 94.9404 56.9263 105.596 58.4191L112.887 59.5387L119.244 53.381L106.718 51.3285Z" fill="#FEAC4C"/>
<path d="M108.775 134.924L105.41 133.244C104.849 134.551 104.101 135.67 102.979 136.603C100.736 138.283 97.9316 138.469 95.5012 137.163L74.1891 125.967L52.877 137.163C50.4467 138.469 47.6424 138.283 45.3991 136.603C43.1557 134.924 42.034 132.311 42.5948 129.513L47.6424 100.403C49.5119 89.954 45.9599 79.1314 38.295 71.6676L33.0605 66.4429L24.4608 67.749L33.6213 76.7057C39.6037 82.4902 42.4079 90.887 40.9123 99.2839L35.8647 128.393L35.6777 129.139C35.1169 134.177 37.1733 139.216 41.4731 142.201C45.773 145.373 51.5684 145.746 56.429 143.321L74.3761 133.804L92.3231 143.321C94.3796 144.44 96.623 145 98.8663 145C101.858 145 104.662 144.067 107.092 142.201C109.335 140.708 110.831 138.469 111.766 136.23C110.644 135.857 109.709 135.484 108.775 134.924Z" fill="#3481E5"/>
<path d="M66.3373 25.9514L60.7288 37.3338C56.9899 44.7977 49.8858 50.0224 41.4731 51.142L11.3744 55.4337C6.32681 56.3667 2.4009 59.912 0.718362 64.9501C-0.964174 70.1748 0.344483 75.5861 4.2704 79.5046L18.8524 93.686L15.4873 113.652C14.5526 119.063 16.7959 124.288 21.0958 127.46C23.3391 128.953 25.7695 129.886 28.1998 130.072C28.1998 128.953 28.3868 128.02 28.5737 126.9L29.1345 123.168C27.8259 123.168 26.3303 122.608 25.2086 121.862C22.9652 120.183 21.8436 117.57 22.4044 114.771L26.5173 91.0736L9.318 74.2799C7.26157 72.414 6.70073 69.615 7.44852 67.0027C8.38326 64.3903 10.4397 62.5243 13.2439 62.1511L42.4079 57.8594C53.0639 56.3667 62.0375 49.6492 66.8981 40.1328L70.2632 33.4153L66.3373 25.9514Z" fill="#50BBA9"/>
</g>
<defs>
<clipPath id="clip0_769_452">
<rect width="148" height="142" fill="white" transform="translate(0 3)"/>
</clipPath>
</defs>
</svg>
