<svg width="414" height="142" viewBox="0 0 414 142" fill="none" xmlns="http://www.w3.org/2000/svg">
<g clip-path="url(#clip0_771_578)">
<g clip-path="url(#clip1_771_578)">
<path d="M147.286 62.1368C146.538 59.5244 145.043 57.4718 142.986 55.7925C142.425 56.7255 141.678 57.4718 140.93 58.2182L138.125 60.8306C139.247 61.7636 139.995 62.8831 140.556 64.1893C141.491 66.8017 140.743 69.6006 138.686 71.4666L121.487 88.2603L125.6 111.958C126.161 114.757 125.039 117.369 122.796 119.049C120.552 120.728 117.748 120.915 115.318 119.609L89.145 105.987C84.4713 103.561 79.2367 102.255 74.0022 102.255C68.7676 102.255 63.72 103.561 58.8593 105.987L52.3161 109.346L50.8206 117.929L62.0375 111.958C69.5154 108.04 78.302 108.04 85.7799 111.958L112.7 126.139C114.57 127.072 116.626 127.446 118.496 127.446C121.487 127.446 124.291 126.513 126.722 124.647C131.021 121.474 133.265 116.25 132.33 110.838L128.965 90.8726L143.547 76.6913C147.66 72.9594 148.968 67.3615 147.286 62.1368Z" fill="#9A7EF6"/>
<path d="M136.63 52.6202C140.182 48.8883 141.304 43.6636 139.621 38.8121C137.939 33.5874 133.639 30.042 128.217 29.1091L108.027 26.1235L99.0533 7.83705C96.6229 2.98554 91.7623 0 86.3408 0C83.7235 0 81.1062 0.746383 79.0498 2.05256C79.6107 2.98554 80.1715 3.91853 80.7323 4.85151L82.4149 8.21025C83.5365 7.46387 84.8452 6.90407 86.3408 6.90407C89.145 6.90407 91.5753 8.39685 92.697 10.8226L103.353 32.2812L127.096 35.6399C129.9 36.0131 131.956 37.8791 132.891 40.4915C133.826 43.1038 133.078 45.9028 131.021 47.7687L109.896 68.2943C102.231 75.7582 98.6794 86.3942 100.549 97.0302L101.857 104.307L109.709 108.413L107.466 95.9106C105.97 87.7004 108.775 79.3035 114.757 73.3325L136.63 52.6202Z" fill="#FF6862"/>
<path d="M106.718 48.3284C98.4924 47.2089 91.2014 41.9842 87.4625 34.5203L74.0021 7.46379C71.5718 2.98547 66.8981 0.186523 61.6636 0.186523C56.2421 0.186523 51.3814 3.17208 48.9511 8.02359L39.9775 26.31L19.974 29.109C14.5525 29.8554 10.2527 33.5873 8.57017 38.812C7.82238 41.4244 7.63544 44.0367 8.19628 46.4625C9.13102 46.0893 10.2527 45.9027 11.3744 45.7161L15.1134 45.1563C14.7395 43.8501 14.7395 42.3574 15.1134 40.8646C16.0481 38.2522 18.1046 36.3863 20.9088 36.0131L44.6512 32.6543L55.3073 11.1957C56.6159 8.76997 58.8593 7.2772 61.6636 7.2772C64.4678 7.2772 66.8981 8.76997 68.0198 11.1957L81.1062 37.6924C85.7799 47.2089 94.9404 53.9263 105.596 55.4191L112.887 56.5387L119.244 50.381L106.718 48.3284Z" fill="#FEAC4C"/>
<path d="M108.775 131.924L105.41 130.244C104.849 131.551 104.101 132.67 102.979 133.603C100.736 135.283 97.9316 135.469 95.5012 134.163L74.1891 122.967L52.877 134.163C50.4467 135.469 47.6424 135.283 45.3991 133.603C43.1557 131.924 42.034 129.311 42.5948 126.513L47.6424 97.4034C49.5119 86.954 45.9599 76.1314 38.295 68.6676L33.0605 63.4429L24.4608 64.749L33.6213 73.7057C39.6037 79.4902 42.4079 87.887 40.9123 96.2839L35.8647 125.393L35.6777 126.139C35.1169 131.177 37.1733 136.216 41.4731 139.201C45.7729 142.373 51.5684 142.746 56.429 140.321L74.3761 130.804L92.3231 140.321C94.3795 141.44 96.6229 142 98.8663 142C101.858 142 104.662 141.067 107.092 139.201C109.335 137.708 110.831 135.469 111.766 133.23C110.644 132.857 109.709 132.484 108.775 131.924Z" fill="#3481E5"/>
<path d="M66.3373 22.9514L60.7288 34.3338C56.9899 41.7977 49.8858 47.0224 41.4731 48.142L11.3744 52.4337C6.32681 53.3666 2.4009 56.912 0.718362 61.9501C-0.964174 67.1748 0.344483 72.5861 4.2704 76.5046L18.8524 90.686L15.4873 110.652C14.5526 116.063 16.7959 121.288 21.0958 124.46C23.3391 125.953 25.7695 126.886 28.1998 127.072C28.1998 125.953 28.3868 125.02 28.5737 123.9L29.1345 120.168C27.8259 120.168 26.3303 119.608 25.2086 118.862C22.9652 117.183 21.8436 114.57 22.4044 111.771L26.5173 88.0736L9.318 71.2799C7.26157 69.4139 6.70073 66.615 7.44852 64.0027C8.38326 61.3903 10.4397 59.5243 13.2439 59.1511L42.4079 54.8594C53.0639 53.3667 62.0375 46.6492 66.8981 37.1328L70.2632 30.4153L66.3373 22.9514Z" fill="#50BBA9"/>
</g>
<g clip-path="url(#clip2_771_578)">
<path d="M192.711 75.1371V64.4555H221.448V75.1371H192.711ZM193.725 51.5673V88.8569H226.227V99.8743H180V40.5499H225.117V51.5673H193.725ZM255.978 100.562C251.655 100.562 247.761 99.5865 244.296 97.6356C240.832 95.6848 238.091 92.9611 236.074 89.4645C234.058 85.9573 233.049 81.8318 233.049 77.0879C233.049 72.2802 234.058 68.128 236.074 64.6314C238.091 61.1242 240.832 58.4112 244.296 56.4923C247.761 54.5735 251.655 53.614 255.978 53.614C259.85 53.614 263.235 54.4615 266.131 56.1565C269.027 57.8515 271.274 60.4206 272.873 63.8639C274.46 67.3072 275.254 71.7152 275.254 77.0879C275.254 82.3968 274.487 86.7888 272.953 90.264C271.419 93.7393 269.215 96.3244 266.34 98.0194C263.476 99.7144 260.022 100.562 255.978 100.562ZM258.279 89.7044C260.446 89.7044 262.409 89.198 264.168 88.1853C265.927 87.1726 267.332 85.7174 268.384 83.8199C269.435 81.9224 269.96 79.6784 269.96 77.0879C269.96 74.4335 269.435 72.1736 268.384 70.308C267.332 68.4425 265.927 66.998 264.168 65.9746C262.409 64.9619 260.446 64.4555 258.279 64.4555C256.069 64.4555 254.079 64.9619 252.309 65.9746C250.55 66.998 249.145 68.4425 248.094 70.308C247.043 72.1736 246.517 74.4335 246.517 77.0879C246.517 79.6784 247.043 81.9224 248.094 83.8199C249.145 85.7174 250.55 87.1726 252.309 88.1853C254.079 89.198 256.069 89.7044 258.279 89.7044ZM283.01 99.8743H270.314V90.5519L270.572 76.992L269.719 63.5281V37H283.01V99.8743ZM315.85 100.898C311.076 100.898 306.501 100.263 302.125 98.9948C297.737 97.7156 294.208 96.0632 291.537 94.0378L296.236 83.692C298.789 85.5042 301.814 86.986 305.311 88.1373C308.808 89.2993 312.347 89.8803 315.93 89.8803C318.665 89.8803 320.87 89.6138 322.543 89.0808C324.217 88.5371 325.45 87.7855 326.244 86.8261C327.048 85.8667 327.451 84.7687 327.451 83.5321C327.451 81.9437 326.823 80.6858 325.568 79.7583C324.313 78.8202 322.667 78.058 320.628 77.4717C318.58 76.8747 316.316 76.3097 313.838 75.7767C311.371 75.2331 308.899 74.5668 306.421 73.7779C303.954 72.9891 301.696 71.971 299.647 70.7238C297.598 69.4872 295.935 67.8508 294.659 65.8147C293.382 63.7786 292.744 61.1775 292.744 58.0114C292.744 54.6214 293.667 51.5299 295.512 48.737C297.357 45.944 300.14 43.7106 303.862 42.037C307.585 40.374 312.262 39.5425 317.893 39.5425C321.648 39.5425 325.343 39.9795 328.979 40.8537C332.616 41.7278 335.828 43.039 338.617 44.7873L334.353 55.2131C331.564 53.6354 328.781 52.4627 326.003 51.6952C323.214 50.9383 320.484 50.5599 317.813 50.5599C315.142 50.5599 312.953 50.869 311.248 51.4873C309.542 52.1056 308.319 52.9105 307.579 53.9019C306.839 54.8933 306.469 56.0392 306.469 57.3398C306.469 58.8642 307.091 60.0901 308.336 61.0176C309.591 61.9557 311.243 62.7072 313.291 63.2722C315.34 63.8372 317.598 64.4022 320.065 64.9672C322.543 65.5322 325.016 66.1825 327.483 66.9181C329.961 67.6536 332.224 68.6397 334.273 69.8763C336.311 71.1235 337.974 72.7652 339.261 74.8013C340.537 76.8268 341.176 79.3959 341.176 82.5087C341.176 85.8454 340.237 88.8942 338.36 91.6552C336.483 94.4269 333.683 96.6602 329.961 98.3552C326.239 100.05 321.535 100.898 315.85 100.898ZM355.496 117C353.115 117 350.755 116.632 348.416 115.897C346.089 115.161 344.185 114.143 342.704 112.842L347.563 103.44C348.593 104.346 349.773 105.055 351.103 105.567C352.444 106.068 353.769 106.318 355.078 106.318C356.955 106.318 358.446 105.881 359.551 105.007C360.656 104.133 361.664 102.678 362.576 100.642L364.973 95.0452L365.987 93.606L382.447 54.2856H395.239L374.515 102.673C373.034 106.35 371.345 109.234 369.446 111.323C367.537 113.413 365.434 114.884 363.139 115.737C360.833 116.579 358.285 117 355.496 117ZM372.471 92.4227L363.348 101.665L342.881 54.2856H356.606L372.471 92.4227ZM414 99.8743H400.693V37H414V99.8743Z" fill="#545454"/>
</g>
</g>
<defs>
<clipPath id="clip0_771_578">
<rect width="414" height="142" fill="white"/>
</clipPath>
<clipPath id="clip1_771_578">
<rect width="148" height="142" fill="white"/>
</clipPath>
<clipPath id="clip2_771_578">
<rect width="234" height="80" fill="white" transform="translate(180 37)"/>
</clipPath>
</defs>
</svg>
